<?xml version="1.0" encoding="UTF-8"?>
<svg id="Layer_1" xmlns="http://www.w3.org/2000/svg" version="1.1" viewBox="0 0 612 792">
  <!-- Generator: Adobe Illustrator 29.4.0, SVG Export Plug-In . SVG Version: 2.1.0 Build 152)  -->
  <defs>
    <style>
      .st0 {
        fill: #df9e2a;
      }

      .st1 {
        fill: #e4a828;
      }

      .st2 {
        fill: #ebb028;
      }

      .st3 {
        fill: #e9b028;
      }

      .st4 {
        fill: #e09e2a;
      }

      .st5 {
        fill: #e9af28;
      }

      .st6 {
        fill: #fefdfb;
      }

      .st7 {
        fill: #df9f28;
      }

      .st8 {
        fill: #f6b925;
      }
    </style>
  </defs>
  <path class="st7" d="M383.89,139.31c24.15,6.82,48.78,17.99,72.89,25.47,19.11,5.93,44.78,8.89,63.5,16.5,15.06,6.12,14.75,17.36,15.84,32.68,4.8,67.4,2.55,162.05-4.61,229.1-.45,4.21-3.02,10.9,1.88,13.63-20.68,94.68-102.52,168.09-187.91,206.84-27.19,12.34-31.48,17.76-60.41,6.07-64.66-26.12-131.21-75.17-168.72-134.22l1.9-5.86c-7.09-6.79-11.03-21.55-15.33-31.31-14.63-33.18-18.25-48.3-17.92-84.69.57-63.86-3.17-128.8-2.49-191.3.1-8.83,5.92-18.66-.25-28.89.08-4.93,32.92-17.95,39.34-19.91,5.14-1.56,18.05-2.29,23.82-4.09,43.29-13.5,88.38-31.75,133.56-43.13,37.48-9.44,58.4,2.83,93.86,12.49,3.85,1.05,8.54-.08,11.05.63ZM402.25,338.64c-.73-27.16,3.07-53.6-5.4-79.84-25.17-77.98-137.74-83.42-173.97-11.66-14.86,29.42-8.16,59.72-9.46,91.52-16.32-2.21-31.7,7.24-36.13,22.89,1.94,43.57-4.66,93.04-.73,135.91,2.08,22.75,27.73,33.5,45.57,43.61,18.03,10.21,47.14,26.31,65.56,34.11,16.43,6.95,23.31,6.17,39.47-.79,20.47-8.81,81.67-39.43,97.37-52.13,6.01-4.87,13.04-12.01,14.28-19.82,3.29-20.73,3.29-117.99,0-138.72-2.3-14.5-22.16-27.17-36.57-25.08Z"/>
  <path class="st1" d="M121.59,170.78v2.62c-6.42,1.96-39.26,14.98-39.34,19.91,6.17,10.23.34,20.06.25,28.89-.68,62.5,3.07,127.44,2.49,191.3-.33,36.39,3.3,51.51,17.92,84.69,4.3,9.76,8.25,24.52,15.33,31.31l-1.9,5.86c-20.95-32.98-36.28-71.96-39.31-111.51-4.39-57.39-5.4-163.71-.13-220.39,2.72-29.3,21.98-25.36,44.69-32.69Z"/>
  <path class="st8" d="M533.39,456.68c-4.9-2.73-2.33-9.42-1.88-13.63,7.15-67.04,9.41-161.7,4.61-229.1-1.09-15.32-.78-26.56-15.84-32.68v-2.62c3.81,1.67,18.36,6.84,18.36,11.8v243.93c0,3.06-4.17,17.36-5.25,22.29Z"/>
  <path class="st2" d="M278.97,126.19c-45.18,11.38-90.27,29.62-133.56,43.13-5.77,1.8-18.68,2.52-23.82,4.09v-2.62c51.39-16.58,105.13-33.81,157.38-47.21v2.62Z"/>
  <path class="st5" d="M383.89,136.68v2.62c-2.51-.71-7.2.42-11.05-.63-35.46-9.66-56.38-21.93-93.86-12.49v-2.62c9.88-2.54,19.55-6.83,29.91-7.64l75,20.75Z"/>
  <path class="st3" d="M520.28,178.65v2.62c-18.72-7.61-44.39-10.57-63.5-16.5-24.12-7.48-48.75-18.64-72.89-25.47v-2.62c42.63,16.5,94.88,23.73,136.39,41.97Z"/>
  <path class="st6" d="M402.25,338.64c14.4-2.1,34.26,10.58,36.57,25.08,3.29,20.73,3.29,117.99,0,138.72-1.24,7.81-8.27,14.95-14.28,19.82-15.7,12.71-76.91,43.32-97.37,52.13-16.17,6.96-23.04,7.75-39.47.79-18.43-7.8-47.54-23.9-65.56-34.11-17.84-10.1-43.49-20.85-45.57-43.61-3.93-42.87,2.67-92.34.73-135.91,4.44-15.65,19.81-25.09,36.13-22.89,1.3-31.8-5.39-62.09,9.46-91.52,36.23-71.76,148.8-66.33,173.97,11.66,8.47,26.24,4.67,52.68,5.4,79.84ZM357.66,338.65v-61.64c0-19.61-34.77-39.52-53.72-38.11-50.76,3.76-54.04,60.82-45.95,99.75h99.67ZM339.3,509.14c-1.78-9.76-13.9-43.75-12.53-50.83,1.08-5.55,14.76-10.3,15.26-26.64,1.48-48.43-81.86-45-67.65,9.95,1.68,6.51,11.88,13.04,11.91,18.43l-9.93,49.09h62.95Z"/>
  <path class="st0" d="M357.66,338.65h-99.67c-8.09-38.93-4.81-95.99,45.95-99.75,18.96-1.4,53.72,18.5,53.72,38.11v61.64Z"/>
  <path class="st4" d="M339.3,509.14h-62.95l9.93-49.09c-.03-5.39-10.22-11.92-11.91-18.43-14.2-54.96,69.14-58.39,67.65-9.95-.5,16.35-14.18,21.1-15.26,26.64-1.37,7.08,10.75,41.07,12.53,50.83Z"/>
</svg>